<svg xmlns="http://www.w3.org/2000/svg" width="160" height="125.726" viewBox="0 0 160 125.726">
    <defs>
        <style>
            .cls-2{fill:#fff}.cls-3{fill:#fcc117}
        </style>
    </defs>
    <g id="Consensus_by_Coindesk_Logo_Stacked_White_Text_RGB" transform="translate(-84.5 -186.5)">
        <g id="Group_2" transform="translate(137.421 186.5)">
            <path id="Path_1" fill="#36d9be" d="M342.379 242.149l-21.118-12.2v-24.372l21.118-12.2 21.118 12.2v24.374zm27.079-8.759v-31.252L342.379 186.5 315.3 202.138v31.252l27.079 15.638z" transform="translate(-315.3 -186.5)"/>
            <path id="Path_2" d="M390.386 266.141l-11.992 6.925-11.969-6.925v-13.826l11.969-6.925 11.946 6.9 4.448-2.545-16.394-9.445L362 249.77v18.939l16.394 9.447 16.394-9.447z" class="cls-2" transform="translate(-351.292 -227.964)"/>
        </g>
        <g id="Group_3" transform="translate(84.5 259.942)">
            <path id="Path_3" d="M464.112 507a5.62 5.62 0 0 0-3.715 1.307 2.894 2.894 0 0 1-.3.252V507h-3.6v21.668h3.737v-14.743c0-2.545.917-3.669 2.958-3.669 2.293 0 3 1.009 3 4.334v14.079h3.737v-14.24c.007-4.999-1.896-7.429-5.817-7.429z" class="cls-2" transform="translate(-371.203 -506.954)"/>
            <path id="Path_4" d="M242.312 507a5.62 5.62 0 0 0-3.715 1.307 2.889 2.889 0 0 1-.3.252V507h-3.6v21.668h3.737v-14.743c0-2.545.917-3.669 2.958-3.669 2.293 0 3 1.009 3 4.334v14.079h3.737v-14.24c.008-4.999-1.896-7.429-5.817-7.429z" class="cls-2" transform="translate(-200.26 -506.954)"/>
            <path id="Path_5" d="M683.1 515.9c-1.972-.894-3.669-1.674-3.669-3.393 0-1.376 1.055-2.27 2.66-2.27q2.889 0 2.889 3.1v.39h3.62v-.39c0-4.15-2.408-6.535-6.6-6.535-3.738 0-6.26 2.293-6.26 5.732 0 3.715 2.843 5.068 5.365 6.26 2.109.986 3.944 1.857 3.944 3.875a2.711 2.711 0 0 1-2.889 2.591 2.924 2.924 0 0 1-3.118-3.233v-.39H675.3v.39c0 4.036 2.637 6.535 6.856 6.535a6.758 6.758 0 0 0 5.044-1.9 5.934 5.934 0 0 0 1.559-4.1c0-4.068-3.141-5.513-5.659-6.662z" class="cls-2" transform="translate(-539.834 -506.8)"/>
            <path id="Path_6" d="M536.3 515.9c-1.972-.894-3.669-1.674-3.669-3.393 0-1.376 1.055-2.27 2.66-2.27q2.889 0 2.889 3.1v.39h3.62v-.39c0-4.15-2.408-6.535-6.6-6.535-3.737 0-6.26 2.293-6.26 5.732 0 3.715 2.843 5.068 5.366 6.26 2.109.986 3.944 1.857 3.944 3.875a2.711 2.711 0 0 1-2.889 2.591 2.924 2.924 0 0 1-3.118-3.233v-.39H528.5v.39c0 4.036 2.637 6.535 6.856 6.535a6.758 6.758 0 0 0 5.044-1.9 5.934 5.934 0 0 0 1.559-4.1c.001-4.068-3.141-5.513-5.659-6.662z" class="cls-2" transform="translate(-426.694 -506.8)"/>
            <path id="Path_7" d="M314.5 515.9c-1.972-.894-3.669-1.674-3.669-3.393 0-1.376 1.055-2.27 2.66-2.27q2.889 0 2.889 3.1v.39H320v-.39c0-4.15-2.408-6.535-6.6-6.535-3.737 0-6.26 2.293-6.26 5.732 0 3.715 2.843 5.068 5.365 6.26 2.109.986 3.944 1.857 3.944 3.875a2.711 2.711 0 0 1-2.889 2.591 2.924 2.924 0 0 1-3.118-3.233v-.39H306.7v.39c0 4.036 2.637 6.535 6.856 6.535a6.758 6.758 0 0 0 5.044-1.9 5.934 5.934 0 0 0 1.559-4.1c0-4.068-3.141-5.513-5.659-6.662z" class="cls-2" transform="translate(-255.751 -506.8)"/>
            <path id="Path_8" d="M91.2 507c-4.127 0-6.7 2.66-6.7 6.97v7.7c0 4.4 2.5 7.039 6.7 7.039s6.7-2.66 6.7-7.108v-.39h-3.747v.39c0 2.43-.986 3.669-2.958 3.669-1.9 0-3-1.169-3-3.21v-8.415c0-2.041 1.055-3.164 3-3.164 2.018 0 2.958 1.169 2.958 3.669v.39h3.76v-.39c.001-4.467-2.522-7.15-6.713-7.15z" class="cls-2" transform="translate(-84.5 -506.954)"/>
            <path id="Path_9" d="M165.4 507.2c-4.127 0-6.7 2.66-6.7 6.925v7.7c0 4.4 2.5 7.039 6.7 7.039 4.127 0 6.7-2.706 6.7-7.039v-7.7c.014-4.219-2.623-6.925-6.7-6.925zm-3 6.6c0-2.041 1.055-3.164 3-3.164 1.88 0 2.958 1.146 2.958 3.164v8.415c0 2.018-1.1 3.21-2.958 3.21-1.9 0-3-1.169-3-3.21z" class="cls-2" transform="translate(-141.687 -507.108)"/>
            <path id="Path_10" d="M612.845 522.064c0 2.018-1.1 3.21-2.958 3.21-1.9 0-3-1.169-3-3.21V507H603.1v14.675c0 4.334 2.591 7.039 6.787 7.039 4.127 0 6.7-2.706 6.7-7.039V507h-3.737z" class="cls-2" transform="translate(-484.189 -506.954)"/>
            <path id="Path_11" d="M386.6 506.9c-4.127 0-6.7 2.66-6.7 6.925v7.7c0 4.379 2.568 7.108 6.7 7.108 3.348 0 6.7-1.949 6.7-6.283v-.711h-3.737v1.032a2.676 2.676 0 0 1-2.958 2.66c-2.614 0-3-2.43-3-3.9v-2.843h9.7v-4.769c-.014-4.213-2.651-6.919-6.705-6.919zm0 3.325c1.834 0 2.958 1.261 2.958 3.279v2.178h-5.962v-2.247c-.004-2.041 1.096-3.21 3.004-3.21z" class="cls-2" transform="translate(-312.167 -506.877)"/>
        </g>
        <path id="Path_12" d="M752.5 510.316a3.417 3.417 0 1 1 3.416 3.439 3.368 3.368 0 0 1-3.416-3.439zm6.237 0a2.82 2.82 0 1 0-2.82 2.843 2.754 2.754 0 0 0 2.82-2.843zm-4.127 1.88v-3.806h1.559c.825 0 1.307.413 1.307 1.123a1.068 1.068 0 0 1-.757 1.055l.825 1.605h-.734l-.78-1.513h-.757v1.513h-.665zm2.178-2.66c0-.344-.206-.527-.619-.527h-.869v1.055h.871c.41 0 .617-.206.617-.527z" class="cls-2" transform="translate(-514.833 -246.935)"/>
        <g id="Group_7" transform="translate(113.368 296.129)">
            <g id="Coindesk_xAE__Landscape_Logo_1_" transform="translate(18.412)">
                <g id="Group_5">
                    <g id="Group_4">
                        <path id="Path_13" d="M323.2 698.257a.757.757 0 1 0 .757-.757.763.763 0 0 0-.757.757" class="cls-3" transform="translate(-315.748 -689.96)"/>
                        <path id="Path_14" d="M349.857 697.4a.757.757 0 1 0 .757.757.749.749 0 0 0-.757-.757" class="cls-3" transform="translate(-335.709 -689.883)"/>
                        <path id="Path_15" d="M349.857 722.9a.757.757 0 1 0 .757.757.763.763 0 0 0-.757-.757" class="cls-3" transform="translate(-335.709 -709.536)"/>
                        <path id="Path_16" d="M306.5 665.416a2.111 2.111 0 0 0-3.1-.229l-.092.092-.183.161a2.065 2.065 0 0 1-2.729-.161l-.023-.023a2.084 2.084 0 0 0-.94-.55c-.069-.023-.138-.023-.206-.046h-.069c-.046 0-.092-.023-.16-.023h-.413a.989.989 0 0 0-.115.023.138.138 0 0 0-.092.023.326.326 0 0 0-.138.046c-.023 0-.046.023-.069.023-.046.023-.092.023-.138.046-.023 0-.046.023-.069.023l-.138.069c-.023 0-.046.023-.069.023a.481.481 0 0 0-.138.092c-.023.023-.046.023-.046.046a.5.5 0 0 0-.115.092l-.046.046-.023.023-.092.092-.183.16a2.036 2.036 0 0 1-2.706-.16l-.046-.046-.092-.092a1.868 1.868 0 0 0-1.032-.482h-.023c-.069 0-.115-.023-.183-.023h-.459c-.046 0-.092.023-.138.023a.084.084 0 0 0-.069.023 1.457 1.457 0 0 1-.161.046h-.046a2.5 2.5 0 0 0-.711.413l-.023.023a1.06 1.06 0 0 0-.16.161l-.023.023a1.8 1.8 0 0 0-.367.642.432.432 0 0 0-.046.183c-.023.069-.023.115-.046.183a1.813 1.813 0 0 0 .069.986c.023.046.023.092.046.138 0 .023 0 .023.023.046.023.046.046.115.069.16v.023c.023.069.069.115.092.184a1.747 1.747 0 0 0 .183.252l.092.092.069.069a1.961 1.961 0 0 1-.023 2.843 2.46 2.46 0 0 0-.321.367v.023c-.046.069-.069.115-.115.183a.022.022 0 0 1-.023.023c-.023.046-.046.115-.069.161 0 .023 0 .023-.023.046a.426.426 0 0 0-.046.16c0 .023 0 .046-.023.046a.34.34 0 0 0-.023.16.084.084 0 0 1-.023.069c0 .046-.023.092-.023.138v.39a.172.172 0 0 0 .023.115.084.084 0 0 0 .023.069c0 .046.023.092.023.138v.023a2.131 2.131 0 0 0 .6.963 1.968 1.968 0 0 1-.023 2.866l-.023.023c-.046.046-.092.069-.115.115a.022.022 0 0 1-.023.023l-.023.023c-.046.046-.069.092-.115.138 0 .023-.023.023-.023.046l-.069.138c-.023.023-.023.046-.046.069-.023.046-.046.069-.046.115-.023.023-.023.069-.046.092 0 .023-.023.046-.023.069a2.13 2.13 0 0 0-.115.665v.206c0 .046.023.115.023.16v.023a2.769 2.769 0 0 0 .115.413c.023.046.023.069.046.115 0 .023.023.046.046.069l.069.138a.049.049 0 0 0 .046.046c.023.046.069.092.092.138l.046.046c0 .023.023.023.023.046l.069.069.069.069a.4.4 0 0 0 .115.092l.046.046a.022.022 0 0 1 .023.023l.046.046a.5.5 0 0 1 .115.092c.023 0 .023.023.046.023l.138.069c.023 0 .023.023.046.023.069.023.115.046.183.069a.669.669 0 0 0 .206.046h.023a.392.392 0 0 0 .161.023h.481a1.164 1.164 0 0 0 .39-.069h.046c.046-.023.115-.023.161-.046.023 0 .023 0 .046-.023.046-.023.115-.046.161-.069a.022.022 0 0 0 .023-.023 2.982 2.982 0 0 0 .344-.229l.023-.023.138-.138.046-.046a2 2 0 0 1 2.889 0 2.115 2.115 0 1 0 .092-3l-.092.092-.183.16a2.036 2.036 0 0 1-2.706-.16.32.32 0 0 1-.069-.092l-.16-.183a2.036 2.036 0 0 1 .16-2.706 2.173 2.173 0 0 0 .665-1.49v-.138a2.178 2.178 0 0 0-.573-1.353l-.069-.069-.161-.183a2.065 2.065 0 0 1 .161-2.729l.023-.023.046-.069a2 2 0 0 1 2.889 0l.069.069.069.069c.023.023.069.046.092.092l.069.069c.023.023.069.046.092.069a1.343 1.343 0 0 0 .206.092c.023.023.069.023.092.046.046.023.069.023.115.046a.138.138 0 0 0 .092.023c.046 0 .069.023.115.023s.069.023.115.023.069.023.115.023a.206.206 0 0 1 .115.023h.3a.171.171 0 0 0 .115-.023h.092c.046 0 .092-.023.138-.023a.084.084 0 0 0 .069-.023c.046-.023.092-.023.138-.046.023 0 .046-.023.069-.023.069-.023.115-.046.183-.069h.023a1.846 1.846 0 0 0 .55-.39l.046-.069a2 2 0 0 1 2.889 0 2.1 2.1 0 0 0 3.21-.161 1.866 1.866 0 0 0 .069-2.522" class="cls-3" transform="translate(-290.7 -664.617)"/>
                        <path id="Path_17" d="M387.93 686.916a3.269 3.269 0 0 0-.871-.665 2.3 2.3 0 0 0-1.1-.229 2.266 2.266 0 0 0-1.078.229 2.59 2.59 0 0 0-.78.619 2.548 2.548 0 0 0-.459.894 3.321 3.321 0 0 0 .023 2.109 2.611 2.611 0 0 0 .527.871 2.241 2.241 0 0 0 .8.573 2.623 2.623 0 0 0 1.055.206 2.265 2.265 0 0 0 1.078-.229 2.778 2.778 0 0 0 .825-.665l1.078 1.078a3.369 3.369 0 0 1-1.353.94 4.989 4.989 0 0 1-1.651.275 4.351 4.351 0 0 1-1.674-.3 3.743 3.743 0 0 1-2.155-2.155 4.433 4.433 0 0 1-.3-1.674 4.553 4.553 0 0 1 .3-1.7 4 4 0 0 1 .848-1.33 3.958 3.958 0 0 1 1.307-.871 4.473 4.473 0 0 1 1.7-.3 5.008 5.008 0 0 1 1.651.3 3.778 3.778 0 0 1 1.376.94z" class="cls-2" transform="translate(-360.988 -680.018)"/>
                        <path id="Path_18" d="M417.405 688.773a3.5 3.5 0 0 0 .183 1.123 2.4 2.4 0 0 0 .527.871 2.662 2.662 0 0 0 .825.573 2.918 2.918 0 0 0 2.155 0 2.325 2.325 0 0 0 .825-.573 2.53 2.53 0 0 0 .527-.871 3.532 3.532 0 0 0 0-2.247 2.4 2.4 0 0 0-.527-.871 2.66 2.66 0 0 0-.825-.573 2.917 2.917 0 0 0-2.155 0 2.324 2.324 0 0 0-.825.573 2.53 2.53 0 0 0-.527.871 3.5 3.5 0 0 0-.183 1.124m-1.605 0a4.292 4.292 0 0 1 .321-1.628 4.168 4.168 0 0 1 2.224-2.224 4.405 4.405 0 0 1 3.3 0 4.114 4.114 0 0 1 1.33.894 4 4 0 0 1 .894 1.33 4.206 4.206 0 0 1 .321 1.628 4.293 4.293 0 0 1-.321 1.628 4 4 0 0 1-.894 1.33 4.838 4.838 0 0 1-1.33.894 4.405 4.405 0 0 1-3.3 0 4.168 4.168 0 0 1-2.224-2.224 4.293 4.293 0 0 1-.321-1.628" class="cls-2" transform="translate(-387.116 -680.018)"/>
                        <path id="Path_19" d="M457.567 672.244h1.513v7.933h-1.513zm-.367-2.844a1.132 1.132 0 0 1 .321-.78 1.092 1.092 0 0 1 .78-.321 1.133 1.133 0 0 1 .78.321 1.092 1.092 0 0 1 .321.78 1.133 1.133 0 0 1-.321.78 1.092 1.092 0 0 1-.78.321 1.1 1.1 0 0 1-1.1-1.1" class="cls-2" transform="translate(-419.023 -667.456)"/>
                        <path id="Path_20" d="M474.523 684.806h1.513v1.215h.023a2.36 2.36 0 0 1 .986-1.032 3.352 3.352 0 0 1 1.628-.39 3.571 3.571 0 0 1 1.1.183 2.186 2.186 0 0 1 .917.55 2.493 2.493 0 0 1 .619.94 3.563 3.563 0 0 1 .229 1.353v5.09h-1.513v-4.678a2.3 2.3 0 0 0-.161-.94 1.784 1.784 0 0 0-.39-.642 1.476 1.476 0 0 0-.573-.344 2.291 2.291 0 0 0-1.559.046 1.64 1.64 0 0 0-.711.482 1.934 1.934 0 0 0-.459.825 3.751 3.751 0 0 0-.161 1.192v4.081H474.5v-7.933z" class="cls-2" transform="translate(-432.356 -680.018)"/>
                        <path id="Path_21" d="M514.65 676.342a2.736 2.736 0 0 0 1.078-.206 2.325 2.325 0 0 0 .825-.573 2.53 2.53 0 0 0 .527-.871 3.533 3.533 0 0 0 0-2.247 2.4 2.4 0 0 0-.527-.871 2.658 2.658 0 0 0-.825-.573 2.916 2.916 0 0 0-2.155 0 2.326 2.326 0 0 0-.826.573 2.768 2.768 0 0 0-.527.871 3.533 3.533 0 0 0 0 2.247 2.4 2.4 0 0 0 .527.871 2.327 2.327 0 0 0 .826.573 2.736 2.736 0 0 0 1.078.206m4.1 1.215h-1.49v-1.147h-.023a2.974 2.974 0 0 1-1.192.986 3.753 3.753 0 0 1-1.559.344 4.155 4.155 0 0 1-1.651-.321 3.331 3.331 0 0 1-1.261-.894 4.127 4.127 0 0 1-.8-1.33 4.76 4.76 0 0 1-.275-1.628 4.892 4.892 0 0 1 .275-1.651 4.127 4.127 0 0 1 .8-1.33 3.764 3.764 0 0 1 1.261-.871 4.323 4.323 0 0 1 1.651-.321 3.507 3.507 0 0 1 1.6.367 2.565 2.565 0 0 1 1.147.986h.023V664.9h1.513v12.657z" class="cls-2" transform="translate(-460.102 -664.835)"/>
                        <path id="Path_22" d="M559.105 688.031a2.843 2.843 0 0 0-.161-.917 1.841 1.841 0 0 0-.436-.734 1.952 1.952 0 0 0-.711-.482 2.607 2.607 0 0 0-.986-.183 2.42 2.42 0 0 0-1.788.757 3.8 3.8 0 0 0-.5.734 2.133 2.133 0 0 0-.183.8h4.769zm-4.746 1.215a1.844 1.844 0 0 0 .229.94 2.624 2.624 0 0 0 .6.734 2.347 2.347 0 0 0 .848.458 3 3 0 0 0 1.009.161 2.342 2.342 0 0 0 1.215-.321 3.777 3.777 0 0 0 .963-.871l1.146.871a4.169 4.169 0 0 1-3.508 1.628 4.473 4.473 0 0 1-1.7-.321 3.642 3.642 0 0 1-1.284-.871 3.9 3.9 0 0 1-.8-1.33 4.793 4.793 0 0 1-.275-1.651 4.315 4.315 0 0 1 .3-1.651 4.249 4.249 0 0 1 .848-1.33 4.107 4.107 0 0 1 1.284-.871 4.294 4.294 0 0 1 1.628-.321 3.891 3.891 0 0 1 1.789.367 3.8 3.8 0 0 1 1.192.963 4.078 4.078 0 0 1 .688 1.33 5.73 5.73 0 0 1 .206 1.513v.527h-6.374z" class="cls-2" transform="translate(-492.702 -679.941)"/>
                        <path id="Path_23" d="M595.961 686.647a1.946 1.946 0 0 0-.665-.55 1.764 1.764 0 0 0-.963-.229 1.653 1.653 0 0 0-.917.229.743.743 0 0 0-.39.665.76.76 0 0 0 .229.573 2.092 2.092 0 0 0 .527.344 3.2 3.2 0 0 0 .665.206c.229.046.436.092.6.115.321.069.619.183.917.275a2.59 2.59 0 0 1 .734.436 1.893 1.893 0 0 1 .482.642 2.515 2.515 0 0 1-.092 2.086 2.387 2.387 0 0 1-.734.78 2.984 2.984 0 0 1-1.032.436 5.092 5.092 0 0 1-1.169.138 4.356 4.356 0 0 1-1.72-.3 3.154 3.154 0 0 1-1.33-1.1l1.147-.94a4.435 4.435 0 0 0 .825.642 2.063 2.063 0 0 0 1.1.275 2.45 2.45 0 0 0 .573-.069 2.052 2.052 0 0 0 .527-.183 1.006 1.006 0 0 0 .367-.321.756.756 0 0 0 .138-.436.744.744 0 0 0-.206-.55 1.634 1.634 0 0 0-.5-.344 2.458 2.458 0 0 0-.619-.206c-.206-.046-.413-.092-.573-.115a6.044 6.044 0 0 1-.917-.275 2.312 2.312 0 0 1-.78-.413 2.03 2.03 0 0 1-.527-.642 2 2 0 0 1-.206-.963 2.266 2.266 0 0 1 .252-1.078 2.713 2.713 0 0 1 .688-.757 3.123 3.123 0 0 1 .963-.459 4.562 4.562 0 0 1 1.1-.16 3.9 3.9 0 0 1 1.536.3 2.484 2.484 0 0 1 1.169 1.009z" class="cls-2" transform="translate(-522.221 -679.864)"/>
                    </g>
                    <path id="Path_24" d="M624.5 664.9v12.657h1.513v-4.127l3.669 4.127h2.132l-4.013-4.334 3.692-3.577h-2.086l-3.394 3.416V664.9z" class="cls-2" transform="translate(-547.962 -664.835)"/>
                </g>
            </g>
            <g id="Group_6" transform="translate(0 4.582)">
                <path id="Path_25" d="M210.4 684.6h.986v3.783h.023a1.75 1.75 0 0 1 .757-.642 2.267 2.267 0 0 1 1.032-.229 2.736 2.736 0 0 1 1.078.206 2.325 2.325 0 0 1 .825.573 2.513 2.513 0 0 1 .527.849 3.217 3.217 0 0 1 .183 1.078 3.082 3.082 0 0 1-.183 1.055 2.475 2.475 0 0 1-1.353 1.422 2.736 2.736 0 0 1-1.078.206 2.238 2.238 0 0 1-1.009-.229 1.964 1.964 0 0 1-.78-.642h-.023v.734h-.985zm2.683 7.429a1.787 1.787 0 0 0 .711-.138 1.455 1.455 0 0 0 .527-.367 2.005 2.005 0 0 0 .344-.573 2.429 2.429 0 0 0 .115-.711 2.309 2.309 0 0 0-.115-.711 1.327 1.327 0 0 0-.344-.573 1.453 1.453 0 0 0-.527-.367 1.9 1.9 0 0 0-1.422 0 1.455 1.455 0 0 0-.527.367 2 2 0 0 0-.344.573 2.428 2.428 0 0 0-.115.711 2.31 2.31 0 0 0 .115.711 1.327 1.327 0 0 0 .344.573 1.454 1.454 0 0 0 .527.367 1.71 1.71 0 0 0 .711.138z" class="cls-2" transform="translate(-210.4 -684.6)"/>
                <path id="Path_26" d="M236.7 698h1.124l1.513 4.013h.023l1.467-4.013h1.032l-2.43 6.237q-.138.344-.275.619a1.837 1.837 0 0 1-.344.482 1.221 1.221 0 0 1-.459.3 1.917 1.917 0 0 1-.665.115 2.765 2.765 0 0 1-.436-.023 1.534 1.534 0 0 1-.436-.115l.115-.894a1.7 1.7 0 0 0 .573.115.986.986 0 0 0 .39-.069.726.726 0 0 0 .275-.183.826.826 0 0 0 .183-.275c.046-.092.092-.206.161-.344l.321-.8z" class="cls-2" transform="translate(-230.67 -694.927)"/>
            </g>
        </g>
    </g>
</svg>
