<svg xmlns="http://www.w3.org/2000/svg" width="102.93" height="32" viewBox="0 0 102.93 32">
    <defs>
        <style>
            .cls-2{fill:#fff}.cls-3{fill:#fcc11a}
        </style>
    </defs>
    <g id="Group_31" transform="translate(-150.1 -58.8)">
        <path id="Path_64" fill="#36d9be" d="M161.109 81.387l-8.569-4.947v-9.9l8.569-4.948 8.569 4.948v9.9zm10.991-3.543V65.152l-11-6.352-11 6.352v12.692l11 6.352z"/>
        <path id="Path_65" d="M765.255 127.2a2.635 2.635 0 0 0-1.738.6c-.056.045-.089.078-.145.123v-.723H761.7v10.073h1.738v-6.853c0-1.181.424-1.716 1.382-1.716 1.07 0 1.393.468 1.393 2.017v6.552h1.738v-6.619c.011-2.317-.88-3.454-2.696-3.454z" class="cls-2" transform="translate(-543.448 -60.778)"/>
        <path id="Path_66" d="M552.955 127.2a2.635 2.635 0 0 0-1.738.6c-.056.045-.089.078-.145.123v-.723H549.4v10.073h1.738v-6.853c0-1.181.423-1.716 1.382-1.716 1.07 0 1.393.468 1.393 2.017v6.552h1.738v-6.619c.011-2.317-.88-3.454-2.696-3.454z" class="cls-2" transform="translate(-354.805 -60.778)"/>
        <path id="Path_67" d="M974.922 131.234c-.914-.423-1.7-.78-1.7-1.582 0-.635.49-1.047 1.237-1.047.892 0 1.348.49 1.348 1.437v.178h1.693v-.178a2.781 2.781 0 0 0-3.069-3.042 2.654 2.654 0 0 0-2.919 2.663c0 1.738 1.326 2.351 2.5 2.908.981.457 1.827.858 1.827 1.805a1.259 1.259 0 0 1-1.348 1.2 1.362 1.362 0 0 1-1.449-1.5v-.176H971.3v.178a2.9 2.9 0 0 0 3.187 3.042 3.065 3.065 0 0 0 2.34-.891 2.785 2.785 0 0 0 .724-1.917c.012-1.863-1.459-2.543-2.629-3.078z" class="cls-2" transform="translate(-729.692 -60.6)"/>
        <path id="Path_68" d="M834.422 131.234c-.914-.423-1.7-.78-1.7-1.582 0-.635.49-1.047 1.237-1.047.891 0 1.348.49 1.348 1.437v.178H837v-.178a2.781 2.781 0 0 0-3.069-3.042 2.654 2.654 0 0 0-2.919 2.663c0 1.738 1.326 2.351 2.5 2.908.981.457 1.827.858 1.827 1.805a1.259 1.259 0 0 1-1.348 1.2 1.362 1.362 0 0 1-1.449-1.5v-.176H830.8v.178a2.9 2.9 0 0 0 3.187 3.042 3.064 3.064 0 0 0 2.34-.891 2.785 2.785 0 0 0 .724-1.917c0-1.863-1.459-2.543-2.629-3.078z" class="cls-2" transform="translate(-604.848 -60.6)"/>
        <path id="Path_69" d="M622.022 131.234c-.914-.423-1.7-.78-1.7-1.582 0-.635.49-1.047 1.237-1.047.891 0 1.348.49 1.348 1.437v.178h1.693v-.178a2.781 2.781 0 0 0-3.069-3.042 2.654 2.654 0 0 0-2.919 2.663c0 1.738 1.326 2.351 2.5 2.908.981.457 1.827.858 1.827 1.805a1.259 1.259 0 0 1-1.348 1.2 1.362 1.362 0 0 1-1.449-1.5v-.176H618.4v.178a2.9 2.9 0 0 0 3.187 3.042 3.064 3.064 0 0 0 2.34-.891 2.785 2.785 0 0 0 .724-1.917c.011-1.863-1.451-2.543-2.629-3.078z" class="cls-2" transform="translate(-416.116 -60.6)"/>
        <path id="Path_70" d="M408.72 127.2a2.949 2.949 0 0 0-3.12 3.243v3.577a2.943 2.943 0 0 0 3.12 3.276c1.95 0 3.12-1.237 3.12-3.31v-.178h-1.74v.178c0 1.137-.468 1.716-1.382 1.716a1.314 1.314 0 0 1-1.393-1.493v-3.922a1.291 1.291 0 0 1 1.393-1.471c.936 0 1.382.546 1.382 1.716v.178h1.738v-.178c.002-2.084-1.157-3.332-3.118-3.332z" class="cls-2" transform="translate(-227.029 -60.778)"/>
        <path id="Path_71" d="M479.82 127.4a2.942 2.942 0 0 0-3.12 3.22v3.58a3.124 3.124 0 1 0 6.24 0v-3.58a2.97 2.97 0 0 0-3.12-3.22zm-1.4 3.064a1.39 1.39 0 1 1 2.775 0v3.922a1.391 1.391 0 1 1-2.775 0z" class="cls-2" transform="translate(-290.206 -60.956)"/>
        <path id="Path_72" d="M906.635 134.209a1.391 1.391 0 1 1-2.775 0V127.2h-1.76v6.82a3.14 3.14 0 1 0 6.274 0v-6.82h-1.738z" class="cls-2" transform="translate(-668.203 -60.778)"/>
        <path id="Path_73" d="M691.52 127.1a2.942 2.942 0 0 0-3.12 3.22v3.58a2.986 2.986 0 0 0 3.12 3.31 2.876 2.876 0 0 0 3.12-2.92v-.334h-1.74v.49a1.248 1.248 0 0 1-1.382 1.237c-1.215 0-1.393-1.137-1.393-1.816v-1.326h4.513v-2.221a2.97 2.97 0 0 0-3.118-3.22zm0 1.549a1.354 1.354 0 0 1 1.382 1.527v1.014h-2.775v-1.047a1.309 1.309 0 0 1 1.393-1.494z" class="cls-2" transform="translate(-478.316 -60.689)"/>
        <path id="Path_74" d="M200.722 114.2l-4.858 2.8-4.87-2.808v-5.616l4.87-2.808 4.847 2.808 1.805-1.036-6.652-3.844-6.664 3.844v7.689l6.664 3.844 6.652-3.844z" class="cls-2" transform="translate(-34.743 -39.897)"/>
        <path id="Path_75" d="M1045.2 128.693a1.594 1.594 0 1 1 1.594 1.6 1.582 1.582 0 0 1-1.594-1.6zm2.9 0a1.3 1.3 0 1 0-1.3 1.326 1.274 1.274 0 0 0 1.3-1.326zm-1.928.869v-1.772h.724c.379 0 .613.189.613.524a.5.5 0 0 1-.345.49l.39.747h-.345l-.357-.713h-.345v.713h-.334zm1.025-1.237c0-.156-.089-.245-.29-.245h-.412v.49h.412c.187.001.288-.088.288-.244z" class="cls-2" transform="translate(-795.357 -60.689)"/>
        <g id="Group_29" transform="translate(187.909 82.621)">
            <g id="Group_28">
                <path id="Path_76" d="M523.2 307.279a.379.379 0 1 0 .379-.379.376.376 0 0 0-.379.379" class="cls-3" transform="translate(-519.434 -303.074)"/>
                <path id="Path_77" d="M550.679 306.7a.379.379 0 1 0 .379.379.376.376 0 0 0-.379-.379" class="cls-3" transform="translate(-543.514 -302.897)"/>
                <path id="Path_78" d="M550.679 333.3a.379.379 0 1 0 .379.379.383.383 0 0 0-.379-.379" class="cls-3" transform="translate(-543.514 -326.533)"/>
                <path id="Path_79" fill="#fcc117" d="M497.4 272.973a1.067 1.067 0 0 0-1.571-.111l-.045.045-.1.078a1.028 1.028 0 0 1-1.382-.089l-.011-.011a1.19 1.19 0 0 0-.468-.279.324.324 0 0 0-.1-.022h-.033c-.022 0-.056-.011-.078-.011h-.212c-.022 0-.045.011-.067.011a.067.067 0 0 0-.045.011.159.159 0 0 0-.067.022c-.011 0-.022.011-.033.011a.159.159 0 0 1-.067.022c-.011 0-.022.011-.033.011l-.067.033c-.011 0-.022.011-.033.011s-.045.033-.067.045-.022.011-.022.022a.3.3 0 0 0-.067.056c-.011.011-.022.011-.022.022a.011.011 0 0 0-.011.011l-.045.045-.1.078a1.037 1.037 0 0 1-1.371-.078l-.022-.022-.045-.045a.99.99 0 0 0-.524-.245h-.011c-.033 0-.056-.011-.089-.011h-.245c-.022 0-.045.011-.067.011a.041.041 0 0 0-.033.011c-.022.011-.056.011-.078.022s-.011 0-.022.011a1.266 1.266 0 0 0-.357.2.011.011 0 0 0-.011.011l-.078.078-.011.011a1.174 1.174 0 0 0-.189.323c-.011.033-.022.056-.033.089-.011.033-.011.056-.022.089a.955.955 0 0 0 .033.5c.011.022.011.045.022.067s0 .011.011.022.022.056.033.078v.011a.392.392 0 0 0 .056.089 1.165 1.165 0 0 0 .089.123l.045.045a.154.154 0 0 0 .045.033 1 1 0 0 1-.011 1.438.83.83 0 0 0-.156.189v.011c-.022.033-.033.056-.056.089a.011.011 0 0 1-.011.011c-.011.033-.033.056-.045.089 0 .011-.011.011-.011.022a.207.207 0 0 0-.022.078c0 .011 0 .022-.011.022-.011.022-.011.056-.022.078a.041.041 0 0 1-.011.033c0 .022-.011.045-.011.067v.223a.084.084 0 0 0 .011.056.041.041 0 0 0 .011.033c0 .022.011.045.011.078v.011a1.129 1.129 0 0 0 .3.49 1.007 1.007 0 0 1-.011 1.46l-.011.011a.3.3 0 0 0-.056.067.011.011 0 0 1-.011.011l-.011.011a.2.2 0 0 0-.056.078c-.011.011-.011.022-.022.022l-.033.067c-.011.011-.011.022-.022.033s-.022.033-.022.056-.011.033-.022.045-.011.022-.011.033a1.166 1.166 0 0 0-.056.334v.111c0 .022.011.056.011.078v.011a.671.671 0 0 0 .067.212c.011.022.011.045.022.056s.011.022.022.033l.033.067c.011.011.011.022.022.033s.033.045.045.067l.022.022c.011.011.011.011.011.022l.033.033.033.033.056.056.022.022a.011.011 0 0 1 .011.011c.011.011.022.011.022.022.022.011.045.033.067.045s.011.011.022.011a.539.539 0 0 0 .078.033c.011 0 .011.011.022.011.033.011.056.022.089.033l.1.033h.011a.189.189 0 0 0 .078.011h.234a.631.631 0 0 0 .2-.033h.022a.207.207 0 0 1 .078-.022c.011 0 .011 0 .022-.011s.056-.022.078-.033a.011.011 0 0 0 .011-.011 1.559 1.559 0 0 0 .178-.111h.011l.011-.011c.022-.022.056-.045.078-.067l.022-.022a1 1 0 0 1 1.46 0 1.071 1.071 0 1 0 .045-1.515l-.045.045-.1.078a1.037 1.037 0 0 1-1.371-.078c-.011-.011-.022-.033-.045-.045l-.078-.1a1.037 1.037 0 0 1 .078-1.371 1.077 1.077 0 0 0 .334-.758v-.078a1.077 1.077 0 0 0-.3-.691.153.153 0 0 1-.033-.045l-.078-.1a1.04 1.04 0 0 1 .078-1.382l.011-.011.033-.033a1 1 0 0 1 1.46 0l.033.033.033.033.045.045a.152.152 0 0 0 .045.033c.022.011.033.022.056.033a.085.085 0 0 0 .045.022c.022.011.033.022.056.022s.033.011.045.022.033.011.056.022.033.011.056.022.033.011.056.011.033.011.056.011.033.011.056.011a.1.1 0 0 1 .056.011h.156a.141.141 0 0 0 .067-.011h.045c.022 0 .045-.011.067-.011a.084.084 0 0 0 .045-.011.718.718 0 0 1 .078-.022c.011 0 .022-.011.033-.011a.333.333 0 0 0 .089-.045h.011a.928.928 0 0 0 .279-.2l.033-.033a1 1 0 0 1 1.46 0 1.062 1.062 0 0 0 1.627-.078.95.95 0 0 0 .022-1.259" transform="translate(-489.4 -272.568)"/>
                <path id="Path_80" d="M587.375 294.837a1.728 1.728 0 0 0-.446-.334 1.244 1.244 0 0 0-.557-.111 1.2 1.2 0 0 0-.546.111 1.077 1.077 0 0 0-.39.312 1.61 1.61 0 0 0-.234.457 1.725 1.725 0 0 0-.078.535 1.682 1.682 0 0 0 .089.535 1.238 1.238 0 0 0 .268.435 1.157 1.157 0 0 0 .4.29 1.347 1.347 0 0 0 .535.111 1.164 1.164 0 0 0 .546-.111 1.475 1.475 0 0 0 .423-.334l.546.546a1.723 1.723 0 0 1-.691.479 2.428 2.428 0 0 1-1.683-.011 2.072 2.072 0 0 1-.669-.423 1.785 1.785 0 0 1-.435-.657 2.336 2.336 0 0 1-.156-.847 2.4 2.4 0 0 1 .156-.858 2.073 2.073 0 0 1 .423-.669 1.785 1.785 0 0 1 .657-.435 2.352 2.352 0 0 1 .858-.156 2.427 2.427 0 0 1 .847.156 1.881 1.881 0 0 1 .7.479z" class="cls-2" transform="translate(-573.725 -291.345)"/>
                <path id="Path_81" d="M620.613 295.417a1.9 1.9 0 0 0 .089.568 1.286 1.286 0 0 0 .267.446 1.2 1.2 0 0 0 .412.29 1.447 1.447 0 0 0 .546.111 1.227 1.227 0 0 0 .546-.111 1.105 1.105 0 0 0 .412-.29 1.358 1.358 0 0 0 .267-.446 1.523 1.523 0 0 0 .089-.568 1.843 1.843 0 0 0-.089-.568 1.288 1.288 0 0 0-.267-.446 1.2 1.2 0 0 0-.412-.29 1.447 1.447 0 0 0-.546-.111 1.227 1.227 0 0 0-.546.111 1.1 1.1 0 0 0-.412.29 1.357 1.357 0 0 0-.267.446 1.9 1.9 0 0 0-.089.568m-.813 0a2.058 2.058 0 0 1 .167-.825 1.984 1.984 0 0 1 .457-.669 2.159 2.159 0 0 1 2.351-.457 2.029 2.029 0 0 1 .68.457 2.158 2.158 0 0 1 .457.669 2.02 2.02 0 0 1 .167.825 2.058 2.058 0 0 1-.167.825 1.983 1.983 0 0 1-.457.669 2.178 2.178 0 0 1-2.351.446 2.18 2.18 0 0 1-.68-.446 2.158 2.158 0 0 1-.457-.669 2.02 2.02 0 0 1-.167-.825" class="cls-2" transform="translate(-605.269 -290.99)"/>
                <path id="Path_82" d="M663.178 278.395h.758v4.023h-.758zm-.178-1.438a.523.523 0 0 1 .167-.39.541.541 0 0 1 .39-.167.522.522 0 0 1 .39.167.557.557 0 0 1-.39.947.523.523 0 0 1-.39-.167.541.541 0 0 1-.167-.39" class="cls-2" transform="translate(-643.655 -275.973)"/>
                <path id="Path_83" d="M681.1 293.5h.758v.624h.022a1.19 1.19 0 0 1 .5-.524 1.643 1.643 0 0 1 .825-.2 1.879 1.879 0 0 1 .557.089 1.233 1.233 0 0 1 .78.758 1.864 1.864 0 0 1 .123.691v2.585h-.758v-2.385a1.234 1.234 0 0 0-.078-.479 1 1 0 0 0-.2-.323.787.787 0 0 0-.29-.178 1.18 1.18 0 0 0-.345-.056 1.212 1.212 0 0 0-.446.078.974.974 0 0 0-.357.245 1.1 1.1 0 0 0-.234.423 1.9 1.9 0 0 0-.089.6v2.073h-.758V293.5z" class="cls-2" transform="translate(-659.738 -291.079)"/>
                <path id="Path_84" d="M720.339 278.606a1.227 1.227 0 0 0 .546-.111 1.105 1.105 0 0 0 .412-.29 1.358 1.358 0 0 0 .267-.446 1.524 1.524 0 0 0 .089-.568 1.843 1.843 0 0 0-.089-.568 1.288 1.288 0 0 0-.267-.446 1.2 1.2 0 0 0-.412-.29 1.446 1.446 0 0 0-.546-.111 1.227 1.227 0 0 0-.546.111 1.1 1.1 0 0 0-.412.29 1.357 1.357 0 0 0-.268.446 1.523 1.523 0 0 0-.089.568 1.843 1.843 0 0 0 .089.568 1.286 1.286 0 0 0 .268.446 1.2 1.2 0 0 0 .412.29 1.4 1.4 0 0 0 .546.111m2.084.6h-.758v-.579h-.022a1.488 1.488 0 0 1-.6.5 1.819 1.819 0 0 1-.791.178 2.292 2.292 0 0 1-.847-.156 1.913 1.913 0 0 1-.646-.446 2.044 2.044 0 0 1-.412-.669 2.483 2.483 0 0 1 0-1.671 2.044 2.044 0 0 1 .412-.669 1.913 1.913 0 0 1 .646-.446 2.086 2.086 0 0 1 .847-.156 1.846 1.846 0 0 1 .813.178 1.408 1.408 0 0 1 .579.49h.022v-2.96h.758z" class="cls-2" transform="translate(-692.704 -272.774)"/>
                <path id="Path_85" d="M765.62 295.261a2.053 2.053 0 0 0-.078-.468 1 1 0 0 0-.212-.368 1.018 1.018 0 0 0-.357-.245 1.389 1.389 0 0 0-.5-.089 1.116 1.116 0 0 0-.513.111 1.128 1.128 0 0 0-.39.279 1.058 1.058 0 0 0-.245.379 1.1 1.1 0 0 0-.089.412h2.385zm-2.407.613a.981.981 0 0 0 .111.479 1.211 1.211 0 0 0 .3.368 1.356 1.356 0 0 0 .435.234 1.6 1.6 0 0 0 .513.089 1.1 1.1 0 0 0 .613-.167 1.949 1.949 0 0 0 .479-.435l.579.446a2.126 2.126 0 0 1-1.783.825 2.352 2.352 0 0 1-.858-.156 1.809 1.809 0 0 1-.646-.446 2.157 2.157 0 0 1-.557-1.5 2.276 2.276 0 0 1 .156-.836 1.928 1.928 0 0 1 .435-.669 1.961 1.961 0 0 1 .657-.446 2.05 2.05 0 0 1 .825-.156 2 2 0 0 1 .9.189 1.741 1.741 0 0 1 .6.49 2.063 2.063 0 0 1 .345.68 3.036 3.036 0 0 1 .1.769v.267h-3.209z" class="cls-2" transform="translate(-731.979 -291.168)"/>
                <path id="Path_86" d="M804.8 294.5a1.017 1.017 0 0 0-.334-.279.94.94 0 0 0-.49-.111.91.91 0 0 0-.468.111.368.368 0 0 0-.2.334.378.378 0 0 0 .111.29.865.865 0 0 0 .267.178 1.468 1.468 0 0 0 .334.1c.123.022.223.045.3.056a4.408 4.408 0 0 1 .457.145 1.2 1.2 0 0 1 .368.223.93.93 0 0 1 .245.334 1.226 1.226 0 0 1 .089.479 1.066 1.066 0 0 1-.145.579 1.368 1.368 0 0 1-.368.39 1.585 1.585 0 0 1-.524.223 2.594 2.594 0 0 1-.591.067 2.386 2.386 0 0 1-.88-.156 1.5 1.5 0 0 1-.669-.557l.579-.479a3 3 0 0 0 .412.334.989.989 0 0 0 .557.145 1.287 1.287 0 0 0 .29-.033 1.507 1.507 0 0 0 .268-.089.887.887 0 0 0 .189-.156.4.4 0 0 0 .067-.223.388.388 0 0 0-.1-.279.705.705 0 0 0-.256-.178 1.46 1.46 0 0 0-.312-.1c-.111-.022-.212-.045-.29-.067q-.251-.067-.468-.134a1.831 1.831 0 0 1-.39-.2.853.853 0 0 1-.268-.323 1.049 1.049 0 0 1-.1-.479 1.071 1.071 0 0 1 .134-.546 1.282 1.282 0 0 1 .345-.39 1.811 1.811 0 0 1 .49-.234 1.871 1.871 0 0 1 .551-.075 2.072 2.072 0 0 1 .78.156 1.2 1.2 0 0 1 .591.513z" class="cls-2" transform="translate(-767.433 -291.079)"/>
            </g>
            <path id="Path_87" d="M837.4 272.8v6.407h.758v-2.084l1.861 2.084h1.081l-2.028-2.184 1.872-1.816h-1.059l-1.727 1.738V272.8z" class="cls-2" transform="translate(-798.622 -272.774)"/>
        </g>
        <g id="Group_30" transform="translate(178.571 84.942)">
            <path id="Path_88" d="M405.6 293.4h.49v1.928h.011a.906.906 0 0 1 .379-.323 1.244 1.244 0 0 1 .524-.123 1.443 1.443 0 0 1 .546.1 1.1 1.1 0 0 1 .412.29 1.427 1.427 0 0 1 .267.435 1.442 1.442 0 0 1 .089.546 1.63 1.63 0 0 1-.089.535 1.427 1.427 0 0 1-.267.435 1.2 1.2 0 0 1-.412.29 1.443 1.443 0 0 1-.546.1 1.182 1.182 0 0 1-.513-.111.939.939 0 0 1-.39-.323h-.011v.379h-.49zm1.359 3.755a.924.924 0 0 0 .357-.067.774.774 0 0 0 .435-.479.981.981 0 0 0 .056-.368 1.272 1.272 0 0 0-.056-.368 1.042 1.042 0 0 0-.167-.29.9.9 0 0 0-.267-.189.924.924 0 0 0-.357-.067.885.885 0 0 0-.357.067.774.774 0 0 0-.435.479.981.981 0 0 0-.056.368 1.271 1.271 0 0 0 .056.368 1.04 1.04 0 0 0 .167.29.9.9 0 0 0 .267.189.885.885 0 0 0 .357.067z" class="cls-2" transform="translate(-405.6 -293.4)"/>
            <path id="Path_89" d="M433 307.3h.568l.769 2.028h.011l.735-2.028h.524l-1.237 3.165c-.045.111-.089.212-.134.312a.74.74 0 0 1-.167.234.86.86 0 0 1-.234.156 1.019 1.019 0 0 1-.345.056 1.494 1.494 0 0 1-.223-.011 1.173 1.173 0 0 1-.212-.056l.056-.446a.7.7 0 0 0 .29.056.444.444 0 0 0 .189-.033.284.284 0 0 0 .134-.089.693.693 0 0 0 .1-.134c.022-.056.056-.111.078-.178l.156-.412z" class="cls-2" transform="translate(-429.947 -305.751)"/>
        </g>
    </g>
</svg>
