<svg xmlns="http://www.w3.org/2000/svg" id="_DESK_logo_with_Beta" width="298.04" height="298.04" viewBox="0 0 298.04 298.04">
    <defs>
        <style>
            .cls-3{fill:#010101;fill-rule:evenodd}.cls-5{isolation:isolate}.cls-6{fill:#fff}
        </style>
    </defs>
    <path id="Path_299" fill="#6b6e70" d="M293.26 209.01l-117.4 19.12v-36.62l103.97-4.15z"/>
    <circle id="Ellipse_70" cx="149.02" cy="149.02" r="149.02" fill="#f7bf1d"/>
    <path id="Path_300" d="M171.16 70.92H115.3l-22.73 30h71.54a50.793 50.793 0 0 1 18.37 3 36.267 36.267 0 0 1 13 8.09 30.659 30.659 0 0 1 7.48 12.12 40.75 40.75 0 0 1 2.56 14.48 58.144 58.144 0 0 1-3.41 19.6 50.112 50.112 0 0 1-10.26 16.82 48.914 48.914 0 0 1-16.89 11.71 59.191 59.191 0 0 1-23.29 4.26h-22.82v-.07H81.76v.1l-31.38 30.64h99.84a106.174 106.174 0 0 0 36.74-6.18 87.457 87.457 0 0 0 29.27-17.46 79.5 79.5 0 0 0 19.23-27.69 89.172 89.172 0 0 0 7.05-36q0-17-6.41-29a58.429 58.429 0 0 0-16.67-19.81 64.492 64.492 0 0 0-22.86-11.07 91.794 91.794 0 0 0-25.41-3.54z" class="cls-3"/>
    <path id="Path_301" d="M163.54 110.11a9.648 9.648 0 0 1-1.32-.41h-2.56c-2.49.65-4.46 2.18-6.47 3.75l-.21.17a8.671 8.671 0 0 1-11.07 0 17.812 17.812 0 0 0-6.53-3.88h-2.52c-2.68.64-4.76 2.26-6.87 3.92a8.7 8.7 0 0 1-11.17-.13 16.414 16.414 0 0 0-6.55-3.79h-2.53l-1.86.67a9.38 9.38 0 0 0-5.92 6.42l-.21.57c-.07.19-.14.39-.2.58v2.54a15.109 15.109 0 0 0 3.87 6.69 8.689 8.689 0 0 1 .07 11.36 16.541 16.541 0 0 0-3.91 6.72v2.55a16.366 16.366 0 0 0 3.91 6.71 8.71 8.71 0 0 1 0 11.24 16.265 16.265 0 0 0-3.94 6.88v2.54c.25.61.47 1.24.69 1.88a9.391 9.391 0 0 0 6.37 6l.57.21.57.21h2.52a16.306 16.306 0 0 0 6.65-3.95 8.49 8.49 0 0 1 11.26 0 16.247 16.247 0 0 0 6.68 3.92h2.53l.78-.29c.31-.12.62-.24.95-.35a9.52 9.52 0 0 0 6.31-10.09c-.76-4.9-4.32-8.21-9-8.4a9.4 9.4 0 0 0-7 2.67c-2.68 2.52-5.77 3.69-9.4 2.64a9.76 9.76 0 0 1-4.51-16 10.2 10.2 0 0 0 2.9-8.4c-.27-2.44-1.68-4.22-3.11-6l-.26-.33c-5.24-6.59-.32-14.23 5.33-15.63 3.47-.86 6.37.22 8.89 2.71 3.85 3.75 9.65 4 13.18.28a9.44 9.44 0 0 1 14.19 0 9 9 0 0 0 10.54 1.63 9.59 9.59 0 0 0 5.17-9.87 9.46 9.46 0 0 0-6.81-7.94zm-2.46 60.74a3.28 3.28 0 1 0 3.25 3.31 3.281 3.281 0 0 0-3.25-3.31zm-3.28-23.52a3.13 3.13 0 0 1 3.033-3.224h.277a3.26 3.26 0 0 1 3.19 3.25 3.41 3.41 0 0 1-3.31 3.34 3.29 3.29 0 0 1-3.19-3.366zm-23.77 3.59a3.18 3.18 0 0 0 3.241-3.118v-.162a3.1 3.1 0 0 0-2.911-3.278 3.287 3.287 0 1 0-.329 6.558z" class="cls-3"/>
    <path id="Rectangle_368" fill="#828586" d="M0 0H117.2V36.62H0z" transform="translate(176.03 208.61)"/>
    <g id="Group_100" class="cls-5">
        <g id="Group_97" class="cls-5">
            <path id="Path_302" d="M199.667 217.611h8.55a6.419 6.419 0 0 1 4.756 1.684 4.8 4.8 0 0 1 1.336 3.447 4.123 4.123 0 0 1-3.367 4.168v.08c2.432.561 4.168 2.164 4.168 4.782a5.356 5.356 0 0 1-1.522 3.874 6.672 6.672 0 0 1-4.97 1.844h-8.951zm8.176 8.471c2.325 0 3.714-1.149 3.714-3.153 0-1.87-1.256-2.966-3.393-2.966h-5.771v6.119zm.615 9a4.073 4.073 0 0 0 2.992-.989 3.016 3.016 0 0 0 .882-2.244c0-2.378-1.684-3.554-4.034-3.554h-5.9v6.787z" class="cls-6"/>
            <path id="Path_303" d="M218.131 217.611h14.134v2.406h-11.409v6.011h10.313v2.272h-10.313v6.707h11.7v2.484h-14.425z" class="cls-6"/>
        </g>
        <g id="Group_98" class="cls-5">
            <path id="Path_304" d="M234.7 217.611h15.818v2.406h-6.548v17.473h-2.752v-17.473H234.7z" class="cls-6"/>
        </g>
        <g id="Group_99" class="cls-5">
            <path id="Path_305" d="M256.725 217.611h3.046l7.321 19.879H264.1l-1.978-5.8h-7.828l-2.031 5.8h-2.805zm-1.683 11.944h6.358L259.5 224c-.668-1.924-1.2-4.222-1.2-4.222h-.081s-.587 2.378-1.229 4.222z" class="cls-6"/>
        </g>
    </g>
</svg>
