<svg xmlns="http://www.w3.org/2000/svg" id="_DESK_logo-Black-Beta" width="1310" height="336" viewBox="0 0 1310 336">
    <defs>
        <style>
            .cls-1{fill:#010101}.cls-2{fill:#f7bf1d;fill-rule:evenodd}.cls-4{isolation:isolate}.cls-5{fill:#fff}
        </style>
    </defs>
    <g id="Group_120">
        <path id="Path_349" d="M481.2 10.672l-55.74 314.66h214.93l11.15-63.56H507.955l11.58-67.56H644.4l10.71-59.54H530.245l10.7-60.9h131.1l11.15-63.1z" class="cls-1"/>
        <path id="Path_350" d="M867.315 68.862a57.7 57.7 0 0 1 22.29 18.23l50.39-44.42a80.343 80.343 0 0 0-18.73-17.33 111.862 111.862 0 0 0-24.52-12.45 137.742 137.742 0 0 0-27.2-8 152.517 152.517 0 0 0-28.09-2.67 158.729 158.729 0 0 0-49.5 7.56 122.348 122.348 0 0 0-40.58 20.89 98.624 98.624 0 0 0-27.64 32.89q-9.81 19.11-9.81 43.11 0 19.13 5.79 32.9a80.438 80.438 0 0 0 16.06 23.1 95.763 95.763 0 0 0 23.63 16.44 263.362 263.362 0 0 0 29.43 12q22.29 7.56 35.7 17.32 13.38 9.33 13.38 25.78a34.392 34.392 0 0 1-4.46 17.78 35.8 35.8 0 0 1-11.15 12 55.255 55.255 0 0 1-16.5 6.67 95.934 95.934 0 0 1-18.72 1.77 83.85 83.85 0 0 1-37-8.89q-18.27-8.88-27.64-23.11l-54.91 44.45a104.071 104.071 0 0 0 22.75 21.33 142.376 142.376 0 0 0 29 15.56 194.6 194.6 0 0 0 32.54 8.9 185.72 185.72 0 0 0 79.82-2.67 133.171 133.171 0 0 0 41.89-18.23 100.639 100.639 0 0 0 30.32-32.89q12-20 12-48.45 0-17.771-5.79-31.56a76.1 76.1 0 0 0-17-25.33 111.992 111.992 0 0 0-27.2-19.56 232.794 232.794 0 0 0-36.56-16q-18.739-6.66-29.43-14.22-10.26-8-10.26-21.34 0-10.219 4.46-17.33a44.109 44.109 0 0 1 27.2-18.23 63.42 63.42 0 0 1 16-2.22 70.128 70.128 0 0 1 30.04 6.22z" class="cls-1"/>
        <path id="Path_351" d="M1047.885 177.322l91.41 148h92.31l-112.37-164.89 154.73-149.76h-94.53l-125.3 132h-1.34l23.63-132h-72.68l-55.74 314.69h72.69l25.86-148z" class="cls-1"/>
        <path id="Path_352" d="M255.325 10.192h-116.57l-47.46 62.62 108.73.06H240.6q22.29 0 38.35 6.23 16.5 6.221 27.2 16.89a64 64 0 0 1 15.61 25.33 85.289 85.289 0 0 1 5.35 30.23 120.813 120.813 0 0 1-7.14 40.89 104.347 104.347 0 0 1-21.44 35.1q-13.789 15.13-35.19 24.45-21 8.88-48.6 8.89h-47.71v-.15l-98.26-.06v.21l-65.5 64h208.35q41.46 0 76.69-12.89t61.09-36.45a165.708 165.708 0 0 0 40.13-57.78q14.719-33.78 14.72-75.11 0-35.56-13.38-60.45-13.34-25.331-34.78-41.34a134.911 134.911 0 0 0-47.71-23.11 191.252 191.252 0 0 0-53.055-7.56z" class="cls-2"/>
        <path id="Path_353" d="M239.425 92.062a20.99 20.99 0 0 1-2.76-.87h-5.33c-5.21 1.35-9.32 4.56-13.51 7.83l-.44.35a18.121 18.121 0 0 1-23.1-.07c-4.15-3.52-8.36-6.58-13.63-8.11H175.4c-5.59 1.33-9.94 4.72-14.35 8.18a18.129 18.129 0 0 1-23.29-.27c-4.15-3.59-8.43-6.51-13.69-7.91h-5.27c-1.25.47-2.56.93-3.88 1.4-6.38 2.39-10.33 7-12.31 13.49-.13.39-.28.79-.42 1.19s-.3.8-.43 1.2v5.31c1.32 5.52 4.34 9.83 8.09 13.95a18.13 18.13 0 0 1 .14 23.72c-3.69 4.19-6.72 8.57-8.17 14v5.31c1.39 5.45 4.48 9.77 8.17 14a18.159 18.159 0 0 1 .06 23.45c-3.68 4.32-6.91 8.71-8.23 14.36v5.31c.53 1.26 1 2.59 1.45 3.92a19.632 19.632 0 0 0 13.27 12.53c.39.13.79.28 1.18.43s.79.3 1.19.43h5.26c5.4-1.39 9.67-4.51 13.89-8.23a17.69 17.69 0 0 1 23.49.06c4.21 3.72 8.56 6.78 14 8.17h5.27c.54-.18 1.08-.39 1.62-.6s1.32-.51 2-.73c8.75-3.05 14.54-12.29 13.16-21.06-1.58-10.23-9-17.14-18.82-17.53a19.686 19.686 0 0 0-14.68 5.58c-5.59 5.24-12 7.7-19.61 5.51a20.36 20.36 0 0 1-9.41-33.48c4.67-5.05 6.78-10.77 6-17.54-.55-5.08-3.51-8.79-6.5-12.54l-.54-.68c-10.92-13.76-.66-29.7 11.12-32.62 7.24-1.8 13.3.46 18.56 5.64 8 7.84 20.14 8.44 27.51.6 8.29-8.77 21.26-9 29.61.07 5.53 6 14.75 7 22 3.39 7.57-3.79 11.65-11.5 10.8-20.6-.655-7.51-6.645-14.42-14.215-16.54zm-5.13 126.76a6.84 6.84 0 1 0 6.775 6.9 6.84 6.84 0 0 0-6.775-6.9zm-6.84-49.1a6.53 6.53 0 0 1 6.336-6.722c.191-.005.383 0 .574.009a6.8 6.8 0 0 1 6.64 6.78 7.11 7.11 0 0 1-6.91 7 6.85 6.85 0 0 1-6.64-7.053v-.017zm-49.63 7.44a6.63 6.63 0 0 0 6.782-6.475v-.365a6.48 6.48 0 0 0-6.1-6.837 6.389 6.389 0 0 0-.678 0 6.879 6.879 0 0 0-6.77 6.64 7 7 0 0 0 6.77 7.04z" class="cls-2"/>
        <path id="Rectangle_390" fill="#818385" d="M0 0H253.99V79.36H0z" transform="translate(1052.735 237.962)"/>
        <g id="Group_119" class="cls-4">
            <g id="Group_116" class="cls-4">
                <path id="Path_354" d="M1103.954 257.449h18.53c4.459 0 7.875 1.216 10.307 3.649a10.394 10.394 0 0 1 2.9 7.469c0 4.691-2.664 7.7-7.3 9.034v.173c5.27 1.217 9.034 4.691 9.034 10.366a11.616 11.616 0 0 1-3.3 8.4c-2.432 2.548-6.138 4-10.77 4h-19.4zm17.72 18.357c5.037 0 8.049-2.491 8.049-6.833 0-4.054-2.722-6.428-7.354-6.428h-12.509v13.261zm1.332 19.514c2.953 0 5.095-.753 6.485-2.142a6.537 6.537 0 0 0 1.911-4.865c0-5.153-3.648-7.7-8.744-7.7h-12.8v14.707z" class="cls-5"/>
                <path id="Path_355" d="M1143.97 257.449h30.63v5.212h-24.726v13.029h22.352v4.922h-22.352v14.534h25.363v5.386h-31.267z" class="cls-5"/>
            </g>
            <g id="Group_117" class="cls-4">
                <path id="Path_356" d="M1179.88 257.449h34.281v5.212h-14.187v37.871h-5.964v-37.871h-14.13z" class="cls-5"/>
            </g>
            <g id="Group_118" class="cls-4">
                <path id="Path_357" d="M1227.6 257.449h6.6l15.867 43.083h-6.486l-4.285-12.565h-16.967l-4.4 12.565h-6.08zm-3.649 25.885h13.783l-4.111-12.045c-1.448-4.169-2.606-9.149-2.606-9.149h-.174s-1.275 5.154-2.663 9.149z" class="cls-5"/>
            </g>
        </g>
    </g>
    <path id="Rectangle_391" fill="none" d="M0 0H1310V336H0z"/>
</svg>
