<svg xmlns="http://www.w3.org/2000/svg" width="112" height="112" viewBox="0 0 112 112">
    <g>
        <g>
            <path fill="#19284d" d="M38.77 77.54a39.049 39.049 0 0 1-7.813-.788 38.556 38.556 0 0 1-13.863-5.834A38.881 38.881 0 0 1 3.047 53.861a38.564 38.564 0 0 1-2.259-7.278 39.148 39.148 0 0 1 0-15.627 38.558 38.558 0 0 1 5.833-13.863A38.884 38.884 0 0 1 23.679 3.047 38.576 38.576 0 0 1 30.956.788a39.151 39.151 0 0 1 15.627 0 38.558 38.558 0 0 1 13.864 5.833 38.883 38.883 0 0 1 14.046 17.058 38.577 38.577 0 0 1 2.259 7.278 39.148 39.148 0 0 1 0 15.627 38.561 38.561 0 0 1-5.834 13.863 38.883 38.883 0 0 1-17.057 14.046 38.566 38.566 0 0 1-7.278 2.259 39.05 39.05 0 0 1-7.813.788zm.312-19.869h.268a27.559 27.559 0 0 0 9.29-1.609 22.645 22.645 0 0 0 7.615-4.543 20.547 20.547 0 0 0 5-7.2 23.046 23.046 0 0 0 1.834-9.366 15.893 15.893 0 0 0-1.668-7.545 15.289 15.289 0 0 0-4.337-5.154 16.691 16.691 0 0 0-5.948-2.88 23.864 23.864 0 0 0-6.568-.921H30l-5.913 7.805H43a13.176 13.176 0 0 1 4.484.784 9.382 9.382 0 0 1 3.382 2.1 8.006 8.006 0 0 1 1.934 3.152 10.546 10.546 0 0 1 .666 3.767 15.082 15.082 0 0 1-.887 5.1 12.973 12.973 0 0 1-2.67 4.376 12.718 12.718 0 0 1-4.394 3.047 15.342 15.342 0 0 1-5.746 1.112h-6.247v-.018H21.271v.022l-8.164 7.972zM27.51 28.55l-.484.174a2.438 2.438 0 0 0-1.54 1.671l-.055.148c-.02.055-.038.105-.052.151v.661a3.941 3.941 0 0 0 1.007 1.745 2.261 2.261 0 0 1 .018 2.955 4.315 4.315 0 0 0-1.017 1.745v.663a4.277 4.277 0 0 0 1.013 1.745 2.261 2.261 0 0 1 0 2.924 4.253 4.253 0 0 0-1.025 1.79v.661c.065.158.122.322.18.489a2.443 2.443 0 0 0 1.657 1.561l.148.055.148.054h.655a4.258 4.258 0 0 0 1.73-1.027 2.208 2.208 0 0 1 2.929 0 4.245 4.245 0 0 0 1.738 1.02h.659l.2-.076.017-.007c.07-.027.149-.057.23-.084a2.463 2.463 0 0 0 1.642-2.625 2.438 2.438 0 0 0-2.341-2.185h-.113a2.427 2.427 0 0 0-1.708.7 2.57 2.57 0 0 1-1.767.787 2.452 2.452 0 0 1-.678-.1 2.539 2.539 0 0 1-1.173-4.163 2.64 2.64 0 0 0 .754-2.185 3.035 3.035 0 0 0-.809-1.561l-.068-.086a2.407 2.407 0 0 1-.45-2.332 2.734 2.734 0 0 1 1.845-1.74 2.491 2.491 0 0 1 .6-.078 2.387 2.387 0 0 1 1.716.781 2.6 2.6 0 0 0 1.811.766 2.209 2.209 0 0 0 1.618-.693 2.456 2.456 0 0 1 3.691 0 2.341 2.341 0 0 0 2.742.424 2.5 2.5 0 0 0 1.345-2.568 2.456 2.456 0 0 0-1.772-2.066 2.455 2.455 0 0 1-.343-.106h-.666a4.761 4.761 0 0 0-1.683.975l-.055.045a2.257 2.257 0 0 1-2.88 0 4.6 4.6 0 0 0-1.7-1.01h-.656a4.718 4.718 0 0 0-1.787 1.02 2.263 2.263 0 0 1-2.906-.034 4.3 4.3 0 0 0-1.7-.986h-.665zM41.9 44.449a.853.853 0 0 0-.007 1.707h.007a.853.853 0 0 0 .008-1.707zm-6.993-6.893h-.037a.853.853 0 1 0 0 1.707h.017a.829.829 0 0 0 .826-.853.807.807 0 0 0-.807-.855zm6.963-.066a.815.815 0 0 0-.815.839.858.858 0 0 0 .83.877.886.886 0 0 0 .861-.869.844.844 0 0 0-.83-.846z" transform="translate(971 6127) translate(-954.04 -6111.081) translate(1.04 1.081)"/>
        </g>
        <path fill="none" d="M0 0H112V112H0z" transform="translate(971 6127) translate(-971 -6127)"/>
    </g>
</svg>
