<svg xmlns="http://www.w3.org/2000/svg" width="298.04" height="298.04" viewBox="0 0 298.04 298.04">
    <defs>
        <style>
            .cls-2{fill-rule:evenodd}
        </style>
    </defs>
    <g id="_DESK_logo-rounded-color" transform="translate(-1.04 -1.08)">
        <circle id="Ellipse_67" cx="149.02" cy="149.02" r="149.02" fill="#f8bf1e" transform="translate(1.04 1.08)"/>
        <path id="Path_179" d="M172.2 72h-55.86l-22.73 30h71.54a50.78 50.78 0 0 1 18.37 3 36.28 36.28 0 0 1 13 8.09 30.66 30.66 0 0 1 7.48 12.12 40.75 40.75 0 0 1 2.56 14.48 58.14 58.14 0 0 1-3.41 19.6 50.11 50.11 0 0 1-10.26 16.82A48.92 48.92 0 0 1 176 187.82a59.2 59.2 0 0 1-23.29 4.26h-22.82v-.07H82.8v.1l-31.38 30.64h99.84a106.17 106.17 0 0 0 36.74-6.18 87.45 87.45 0 0 0 29.27-17.46 79.51 79.51 0 0 0 19.23-27.69 89.17 89.17 0 0 0 7.05-36q0-17-6.41-29a58.43 58.43 0 0 0-16.67-19.81 64.49 64.49 0 0 0-22.86-11.07A91.8 91.8 0 0 0 172.2 72z" class="cls-2"/>
        <path id="Path_180" d="M164.58 111.19a9.539 9.539 0 0 1-1.32-.41h-2.56c-2.49.65-4.46 2.18-6.47 3.75l-.21.17a8.67 8.67 0 0 1-11.07 0 17.81 17.81 0 0 0-6.53-3.88h-2.52c-2.68.64-4.76 2.26-6.87 3.92a8.7 8.7 0 0 1-11.17-.13 16.41 16.41 0 0 0-6.55-3.79h-2.53l-1.86.67a9.38 9.38 0 0 0-5.92 6.42l-.21.57c-.07.19-.14.39-.2.58v2.54a15.11 15.11 0 0 0 3.87 6.69 8.69 8.69 0 0 1 .07 11.36 16.54 16.54 0 0 0-3.91 6.72v2.55a16.37 16.37 0 0 0 3.91 6.71 8.71 8.71 0 0 1 0 11.24 16.27 16.27 0 0 0-3.94 6.88v2.54c.25.61.47 1.24.69 1.88a9.39 9.39 0 0 0 6.37 6l.57.21.57.21h2.52a16.31 16.31 0 0 0 6.65-3.95 8.49 8.49 0 0 1 11.26 0 16.24 16.24 0 0 0 6.68 3.92h2.53l.78-.29c.31-.12.62-.24.95-.35a9.52 9.52 0 0 0 6.31-10.09c-.76-4.9-4.32-8.21-9-8.4a9.4 9.4 0 0 0-7 2.67c-2.68 2.52-5.77 3.69-9.4 2.64a9.76 9.76 0 0 1-4.51-16 10.2 10.2 0 0 0 2.9-8.4c-.27-2.44-1.68-4.22-3.11-6l-.26-.33c-5.24-6.59-.32-14.23 5.33-15.63 3.47-.86 6.37.22 8.89 2.71 3.85 3.75 9.65 4 13.18.28a9.44 9.44 0 0 1 14.19 0 9 9 0 0 0 10.54 1.63 9.59 9.59 0 0 0 5.17-9.87 9.46 9.46 0 0 0-6.81-7.94zm-2.46 60.74a3.28 3.28 0 1 0 3.25 3.31 3.28 3.28 0 0 0-3.25-3.31zm-3.28-23.52a3.13 3.13 0 0 1 3.31-3.22 3.26 3.26 0 0 1 3.19 3.25 3.41 3.41 0 0 1-3.31 3.34 3.29 3.29 0 0 1-3.19-3.37zM135.07 152a3.18 3.18 0 0 0 3.24-3.28 3.1 3.1 0 0 0-3.24-3.28 3.28 3.28 0 1 0 0 6.56z" class="cls-2"/>
    </g>
</svg>
