<svg xmlns="http://www.w3.org/2000/svg" width="180" height="46.968" viewBox="0 0 180 46.968">
    <defs>
        <style>
            .cls-1{fill:#fff}.cls-2{fill:#f8bf1e;fill-rule:evenodd}
        </style>
    </defs>
    <g id="_DESK_logo-White" transform="translate(-57.74 -49.546)">
        <path id="Path_172" d="M487.816 58l-7.9 44.573h30.446l1.579-9h-20.334l1.64-9.57h17.687l1.517-8.434h-17.687l1.516-8.627h18.571L516.43 58z" class="cls-1" transform="translate(-362.376 -7.256)"/>
        <path id="Path_173" d="M750.3 58.987a8.173 8.173 0 0 1 3.158 2.582l7.138-6.292a11.381 11.381 0 0 0-2.653-2.455 15.845 15.845 0 0 0-3.473-1.764 19.523 19.523 0 0 0-3.853-1.133 21.6 21.6 0 0 0-3.979-.378 22.486 22.486 0 0 0-7.012 1.071 17.329 17.329 0 0 0-5.748 2.959 13.971 13.971 0 0 0-3.915 4.659 13.177 13.177 0 0 0-1.39 6.107 11.988 11.988 0 0 0 .82 4.66 11.393 11.393 0 0 0 2.275 3.272 13.561 13.561 0 0 0 3.347 2.329 37.325 37.325 0 0 0 4.169 1.7 19 19 0 0 1 5.057 2.453 4.211 4.211 0 0 1 1.9 3.652 4.871 4.871 0 0 1-.632 2.519 5.071 5.071 0 0 1-1.579 1.7 7.827 7.827 0 0 1-2.337.945 13.588 13.588 0 0 1-2.652.251 11.878 11.878 0 0 1-5.241-1.259 9.523 9.523 0 0 1-3.915-3.274L722 89.587a14.74 14.74 0 0 0 3.223 3.022 20.162 20.162 0 0 0 4.108 2.2 27.556 27.556 0 0 0 4.609 1.261 26.31 26.31 0 0 0 11.307-.378 18.866 18.866 0 0 0 5.934-2.582 14.256 14.256 0 0 0 4.295-4.659 13.107 13.107 0 0 0 1.7-6.863 11.463 11.463 0 0 0-.82-4.471 10.782 10.782 0 0 0-2.408-3.588 15.866 15.866 0 0 0-3.853-2.771 32.972 32.972 0 0 0-5.179-2.266 17.431 17.431 0 0 1-4.169-2.014 3.64 3.64 0 0 1-1.453-3.023 4.531 4.531 0 0 1 .631-2.455 6.249 6.249 0 0 1 3.853-2.582 8.983 8.983 0 0 1 2.266-.314 9.936 9.936 0 0 1 4.256.883z" class="cls-1" transform="translate(-570.164)"/>
        <path id="Path_174" d="M1016.618 81.607l12.949 20.965h13.076l-15.918-23.358L1048.644 58h-13.391L1017.5 76.7h-.19l3.347-18.7h-10.3l-7.9 44.578h10.3l3.663-20.965z" class="cls-1" transform="translate(-810.904 -7.256)"/>
        <path id="Path_175" d="M93.444 57.52H76.931l-6.723 8.87 15.4.008h5.748a15.019 15.019 0 0 1 5.432.883 10.719 10.719 0 0 1 3.853 2.393 9.066 9.066 0 0 1 2.211 3.588 12.082 12.082 0 0 1 .758 4.282 17.117 17.117 0 0 1-1.011 5.792 14.782 14.782 0 0 1-3.037 4.972 14.415 14.415 0 0 1-4.985 3.463 17.575 17.575 0 0 1-6.877 1.261h-6.763v-.022L67.018 93v.03l-9.278 9.07h29.514a31.387 31.387 0 0 0 10.864-1.826 25.908 25.908 0 0 0 8.654-5.163 23.475 23.475 0 0 0 5.685-8.185 26.359 26.359 0 0 0 2.085-10.64 17.873 17.873 0 0 0-1.9-8.563 17.158 17.158 0 0 0-4.927-5.856 19.112 19.112 0 0 0-6.758-3.274 27.1 27.1 0 0 0-7.516-1.071z" class="cls-2" transform="translate(0 -6.844)"/>
        <path id="Path_176" d="M175.722 138.643a2.967 2.967 0 0 1-.391-.123h-.755a5.357 5.357 0 0 0-1.914 1.109l-.062.05a2.567 2.567 0 0 1-3.272-.01 5.264 5.264 0 0 0-1.931-1.149h-.745a5.356 5.356 0 0 0-2.033 1.159 2.568 2.568 0 0 1-3.3-.038 4.88 4.88 0 0 0-1.939-1.12h-.747c-.177.067-.363.132-.55.2a2.778 2.778 0 0 0-1.744 1.911c-.018.055-.04.112-.059.169s-.042.113-.061.17v.752a4.453 4.453 0 0 0 1.146 1.976 2.568 2.568 0 0 1 .02 3.36 4.915 4.915 0 0 0-1.157 1.983v.752a4.838 4.838 0 0 0 1.157 1.983 2.572 2.572 0 0 1 .008 3.322 4.847 4.847 0 0 0-1.166 2.034v.752c.075.178.142.367.205.555a2.781 2.781 0 0 0 1.88 1.775c.055.018.112.04.167.061s.112.043.169.061h.745a4.792 4.792 0 0 0 1.968-1.166 2.506 2.506 0 0 1 3.327.008 4.783 4.783 0 0 0 1.983 1.157h.747c.076-.025.153-.055.229-.085s.187-.072.283-.1a2.814 2.814 0 0 0 1.864-2.983 2.808 2.808 0 0 0-4.745-1.693 2.749 2.749 0 0 1-2.778.781 2.884 2.884 0 0 1-1.333-4.743 2.992 2.992 0 0 0 .85-2.485 3.464 3.464 0 0 0-.921-1.776l-.077-.1a2.9 2.9 0 0 1 1.575-4.621 2.642 2.642 0 0 1 2.629.8 2.7 2.7 0 0 0 3.9.085 2.794 2.794 0 0 1 4.194.01 2.656 2.656 0 0 0 3.116.48 2.837 2.837 0 0 0 1.53-2.918 2.8 2.8 0 0 0-2.012-2.345zm-.727 17.956a.969.969 0 1 0 .96.978.969.969 0 0 0-.96-.977zm-.969-6.955a.925.925 0 0 1 .979-.951.963.963 0 0 1 .941.96 1.007 1.007 0 0 1-.979.992.97.97 0 0 1-.941-1zM167 150.7a.939.939 0 0 0 .96-.969.918.918 0 0 0-.96-.969.975.975 0 0 0-.959.941.992.992 0 0 0 .959.997z" class="cls-2" transform="translate(-84.53 -76.37)"/>
    </g>
</svg>
