<svg xmlns="http://www.w3.org/2000/svg" width="1270.69" height="331.564" viewBox="0 0 1270.69 331.564">
    <defs>
        <style>
            .cls-1{fill:#f8bf1e;fill-rule:evenodd}
        </style>
    </defs>
    <g id="_DESK_logo-Black" transform="translate(-57.74 -49.546)">
        <path id="Path_165" d="M535.66 58l-55.74 314.66h214.93L706 309.1H562.42L574 241.54h124.86L709.57 182H584.71l10.7-60.9h131.1L737.66 58z"/>
        <path id="Path_166" d="M921.78 116.19a57.7 57.7 0 0 1 22.29 18.23L994.46 90a80.363 80.363 0 0 0-18.73-17.33 111.861 111.861 0 0 0-24.52-12.45 137.818 137.818 0 0 0-27.2-8 152.511 152.511 0 0 0-28.09-2.67 158.74 158.74 0 0 0-49.5 7.56A122.34 122.34 0 0 0 805.84 78a98.621 98.621 0 0 0-27.64 32.89Q768.39 130 768.39 154q0 19.13 5.79 32.9a80.429 80.429 0 0 0 16.06 23.1 95.739 95.739 0 0 0 23.63 16.44 263.43 263.43 0 0 0 29.43 12q22.29 7.56 35.7 17.32 13.38 9.33 13.38 25.78a34.39 34.39 0 0 1-4.46 17.78 35.8 35.8 0 0 1-11.15 12 55.249 55.249 0 0 1-16.5 6.67 95.921 95.921 0 0 1-18.72 1.77 83.85 83.85 0 0 1-37-8.89q-18.27-8.88-27.64-23.11L722 332.21a104.068 104.068 0 0 0 22.75 21.33 142.338 142.338 0 0 0 29 15.56 194.553 194.553 0 0 0 32.54 8.9 185.731 185.731 0 0 0 79.82-2.67A133.17 133.17 0 0 0 928 357.1a100.632 100.632 0 0 0 30.32-32.89q12-20 12-48.45 0-17.77-5.79-31.56a76.108 76.108 0 0 0-17-25.33 112 112 0 0 0-27.2-19.56 232.759 232.759 0 0 0-36.56-16q-18.74-6.66-29.43-14.22-10.26-8-10.26-21.34 0-10.22 4.46-17.33a44.111 44.111 0 0 1 27.2-18.23 63.41 63.41 0 0 1 16-2.22 70.14 70.14 0 0 1 30.04 6.22z"/>
        <path id="Path_167" d="M1102.35 224.65l91.41 148h92.31L1173.7 207.76 1328.43 58h-94.53l-125.3 132h-1.34l23.63-132h-72.68l-55.74 314.69h72.69l25.86-148z"/>
        <path id="Path_168" d="M309.79 57.52H193.22l-47.46 62.62 108.73.06h40.58q22.29 0 38.35 6.23 16.5 6.22 27.2 16.89a64 64 0 0 1 15.61 25.33 85.291 85.291 0 0 1 5.35 30.23 120.831 120.831 0 0 1-7.14 40.89 104.349 104.349 0 0 1-21.44 35.1q-13.79 15.13-35.19 24.45-21 8.88-48.6 8.89H221.5v-.15l-98.26-.06v.21l-65.5 64h208.35q41.46 0 76.69-12.89t61.09-36.45A165.72 165.72 0 0 0 444 265.09q14.72-33.78 14.72-75.11 0-35.56-13.38-60.45Q432 104.2 410.56 88.19a134.92 134.92 0 0 0-47.71-23.11 191.281 191.281 0 0 0-53.06-7.56z" class="cls-1"/>
        <path id="Path_169" d="M293.89 139.39a20.929 20.929 0 0 1-2.76-.87h-5.33c-5.21 1.35-9.32 4.56-13.51 7.83l-.44.35a18.12 18.12 0 0 1-23.1-.07c-4.15-3.52-8.36-6.58-13.63-8.11h-5.26c-5.59 1.33-9.94 4.72-14.35 8.18a18.129 18.129 0 0 1-23.29-.27c-4.15-3.59-8.43-6.51-13.69-7.91h-5.27c-1.25.47-2.56.93-3.88 1.4-6.38 2.39-10.33 7-12.31 13.49-.13.39-.28.79-.42 1.19s-.3.8-.43 1.2v5.31c1.32 5.52 4.34 9.83 8.09 13.95a18.13 18.13 0 0 1 .14 23.72c-3.69 4.19-6.72 8.57-8.17 14v5.31c1.39 5.45 4.48 9.77 8.17 14a18.16 18.16 0 0 1 .06 23.45c-3.68 4.32-6.91 8.71-8.23 14.36v5.31c.53 1.26 1 2.59 1.45 3.92A19.63 19.63 0 0 0 171 291.66c.39.13.79.28 1.18.43s.79.3 1.19.43h5.26c5.4-1.39 9.67-4.51 13.89-8.23a17.69 17.69 0 0 1 23.49.06c4.21 3.72 8.56 6.78 14 8.17h5.27c.54-.18 1.08-.39 1.62-.6s1.32-.51 2-.73c8.75-3.05 14.54-12.29 13.16-21.06-1.58-10.23-9-17.14-18.82-17.53a19.69 19.69 0 0 0-14.68 5.58c-5.59 5.24-12 7.7-19.61 5.51a20.36 20.36 0 0 1-9.41-33.48c4.67-5.05 6.78-10.77 6-17.54-.55-5.08-3.51-8.79-6.5-12.54l-.54-.68c-10.92-13.76-.66-29.7 11.12-32.62 7.24-1.8 13.3.46 18.56 5.64 8 7.84 20.14 8.44 27.51.6 8.29-8.77 21.26-9 29.61.07 5.53 6 14.75 7 22 3.39 7.57-3.79 11.65-11.5 10.8-20.6-.65-7.51-6.64-14.42-14.21-16.54zm-5.13 126.76a6.84 6.84 0 1 0 6.775 6.9 6.84 6.84 0 0 0-6.775-6.9zm-6.84-49.1a6.53 6.53 0 0 1 6.91-6.71 6.8 6.8 0 0 1 6.64 6.78 7.11 7.11 0 0 1-6.91 7 6.85 6.85 0 0 1-6.64-7.07zm-49.63 7.44a6.63 6.63 0 0 0 6.78-6.84 6.48 6.48 0 0 0-6.78-6.84 6.88 6.88 0 0 0-6.77 6.64 7 7 0 0 0 6.77 7.04z" class="cls-1"/>
    </g>
</svg>
