<svg xmlns="http://www.w3.org/2000/svg" width="178.888" height="180" viewBox="0 0 178.888 180">
    <defs>
        <style>
            .cls-2{fill-rule:evenodd}
        </style>
    </defs>
    <g id="_DESK_logo-square-color" transform="translate(-.42 .51)">
        <path id="Rectangle_333" fill="#f8bf1e" d="M0 0H178.888V180H0z" transform="translate(.42 -.51)"/>
        <path id="Path_183" d="M123.642 72H90.24L76.648 89.939h42.779a30.365 30.365 0 0 1 10.985 1.794 21.694 21.694 0 0 1 7.774 4.838 18.334 18.334 0 0 1 4.473 7.247 24.367 24.367 0 0 1 1.531 8.659 34.766 34.766 0 0 1-2.039 11.72 29.964 29.964 0 0 1-6.135 10.058 29.252 29.252 0 0 1-10.1 7 35.4 35.4 0 0 1-13.927 2.547H98.342v-.042H70.184v.06L51.42 162.143h59.7a63.486 63.486 0 0 0 21.969-3.7 52.292 52.292 0 0 0 17.5-10.44 47.544 47.544 0 0 0 11.5-16.558 53.32 53.32 0 0 0 4.216-21.527q0-10.165-3.833-17.341a34.939 34.939 0 0 0-9.968-11.846 38.563 38.563 0 0 0-13.67-6.619A54.894 54.894 0 0 0 123.642 72z" class="cls-2" transform="translate(-20.504 -29.151)"/>
        <path id="Path_184" d="M138.05 111.025a5.7 5.7 0 0 1-.789-.245h-1.531a10.869 10.869 0 0 0-3.869 2.242l-.126.1a5.184 5.184 0 0 1-6.619 0 10.65 10.65 0 0 0-3.9-2.32H119.7a10.8 10.8 0 0 0-4.108 2.344 5.2 5.2 0 0 1-6.679-.078A9.813 9.813 0 0 0 105 110.8h-1.513l-1.112.4a5.609 5.609 0 0 0-3.54 3.839l-.126.341c-.042.114-.084.233-.12.347v1.519a9.035 9.035 0 0 0 2.314 4 5.2 5.2 0 0 1 .042 6.793 9.89 9.89 0 0 0-2.338 4.018v1.525a9.789 9.789 0 0 0 2.338 4.012 5.208 5.208 0 0 1 0 6.721 9.729 9.729 0 0 0-2.356 4.114v1.519c.149.365.281.741.413 1.124a5.615 5.615 0 0 0 3.809 3.588l.341.126.341.126H105a9.753 9.753 0 0 0 3.976-2.362 5.077 5.077 0 0 1 6.733 0 9.711 9.711 0 0 0 3.991 2.35h1.513l.466-.173c.185-.072.371-.144.568-.209a5.693 5.693 0 0 0 3.773-6.033 5.658 5.658 0 0 0-9.567-3.426 5.558 5.558 0 0 1-5.621 1.579 5.836 5.836 0 0 1-2.7-9.567 6.1 6.1 0 0 0 1.734-5.023 6.975 6.975 0 0 0-1.86-3.588l-.155-.2c-3.133-3.941-.191-8.509 3.187-9.346a5.335 5.335 0 0 1 5.316 1.62 5.477 5.477 0 0 0 7.881.167 5.645 5.645 0 0 1 8.485 0 5.382 5.382 0 0 0 6.3.975 5.735 5.735 0 0 0 3.091-5.9 5.657 5.657 0 0 0-4.072-4.748zm-1.471 36.321a1.961 1.961 0 1 0 1.943 1.979 1.961 1.961 0 0 0-1.943-1.979zm-1.961-14.064a1.872 1.872 0 0 1 1.979-1.925 1.949 1.949 0 0 1 1.903 1.943 2.039 2.039 0 0 1-1.979 2 1.967 1.967 0 0 1-1.903-2.019zm-14.218 2.146a1.9 1.9 0 0 0 1.937-1.961 1.854 1.854 0 0 0-1.937-1.961 1.961 1.961 0 1 0 0 3.923z" class="cls-2" transform="translate(-39.468 -44.742)"/>
    </g>
</svg>
