<svg xmlns="http://www.w3.org/2000/svg" id="learn_more" width="112" height="112" viewBox="0 0 112 112">
    <defs>
        <style>
            .cls-1{fill:#19284d}
        </style>
    </defs>
    <g id="Group_104" transform="translate(14.646 24.188)">
        <path id="Path_323" d="M39.43 115.861V66.152h-2.9A2.535 2.535 0 0 0 34 68.687v54.245a2.535 2.535 0 0 0 2.535 2.535h34.891c-1.117-1.095-6.236-4.451-27.109-4.688a4.949 4.949 0 0 1-4.887-4.918z" class="cls-1" transform="translate(-34 -61.844)"/>
        <path id="Path_324" d="M174.009 66.152h-2.9v49.709a4.949 4.949 0 0 1-4.887 4.918c-20.873.238-25.993 3.594-27.109 4.688h34.891a2.535 2.535 0 0 0 2.535-2.535V68.687a2.535 2.535 0 0 0-2.53-2.535z" class="cls-1" transform="translate(-93.836 -61.844)"/>
        <path id="Path_325" d="M54.9 56.151a2.432 2.432 0 0 0-2.48 2.412v51.606a2.425 2.425 0 0 0 2.409 2.411c29.5.337 29.8 6.856 29.8 7.059V63.214S84.8 56.5 54.9 56.151z" class="cls-1" transform="translate(-44.488 -56.151)"/>
        <path id="Path_326" d="M165.013 110.168V58.563a2.432 2.432 0 0 0-2.48-2.412c-29.9.352-29.73 7.063-29.73 7.063v56.425c0-.2.3-6.722 29.8-7.059a2.425 2.425 0 0 0 2.41-2.412z" class="cls-1" transform="translate(-90.242 -56.151)"/>
    </g>
    <path id="Rectangle_380" fill="none" d="M0 0H112V112H0z"/>
</svg>
