<svg xmlns="http://www.w3.org/2000/svg" width="112" height="112" viewBox="0 0 112 112">
    <defs>
        <style>
            .cls-1{fill:none}.cls-2{fill:#19284d}
        </style>
    </defs>
    <g id="market" transform="translate(-280)">
        <g id="Group_75" transform="translate(280)">
            <path id="Rectangle_318" d="M0 0H22.974V17.915H0z" class="cls-1" transform="translate(29.244 57.197)"/>
            <path id="Path_158" d="M320.683 45.268a5.849 5.849 0 0 0-5.64 4.3l-3.682 12a5.493 5.493 0 0 0 5.313 7.074 7.952 7.952 0 0 0 6.057-3.354.939.939 0 0 1 1.618.184 4.934 4.934 0 0 0 4.676 3.169 7.237 7.237 0 0 0 5.768-3.315.946.946 0 0 1 1.632.09 5.434 5.434 0 0 0 4.95 3.225 6.583 6.583 0 0 0 5.491-3.284.95.95 0 0 1 1.652.049 5.809 5.809 0 0 0 10.416 0 .949.949 0 0 1 1.652-.049 6.584 6.584 0 0 0 5.491 3.284 5.434 5.434 0 0 0 4.95-3.225.946.946 0 0 1 1.632-.09 7.237 7.237 0 0 0 5.768 3.315 4.934 4.934 0 0 0 4.676-3.169.939.939 0 0 1 1.618-.184 7.952 7.952 0 0 0 6.057 3.354 5.493 5.493 0 0 0 5.313-7.074l-3.682-12a5.849 5.849 0 0 0-5.64-4.3z" class="cls-2" transform="translate(-297.725 -25.768)"/>
            <path id="Path_159" d="M397.5 102.164a10 10 0 0 1-6.54-2.647 7.55 7.55 0 0 1-5.811 2.647 9.418 9.418 0 0 1-6.4-2.656 8 8 0 0 1-5.954 2.656 8.87 8.87 0 0 1-6.247-2.654 8.345 8.345 0 0 1-12.207 0 8.869 8.869 0 0 1-6.247 2.654 8 8 0 0 1-5.954-2.657 9.416 9.416 0 0 1-6.4 2.657 7.552 7.552 0 0 1-5.811-2.647 10 10 0 0 1-6.539 2.647c-.152 0-.3-.016-.45-.024v44.883a2.645 2.645 0 0 0 2.645 2.645h38.677a.949.949 0 0 0 .949-.949v-32.064a.95.95 0 0 1 .949-.949h15.2a.95.95 0 0 1 .949.95v32.063a.949.949 0 0 0 .949.949H395.3a2.645 2.645 0 0 0 2.645-2.645V102.14c-.145.008-.297.024-.445.024zm-43.769 26.47a.946.946 0 0 1-.946.946H337.57a.946.946 0 0 1-.946-.946v-11.982a.946.946 0 0 1 .946-.946h15.211a.946.946 0 0 1 .946.946z" class="cls-2" transform="translate(-304.444 -56.642)"/>
            <path id="Rectangle_319" d="M0 0H112V112H0z" class="cls-1"/>
        </g>
        <circle id="Ellipse_64" cx="12.923" cy="12.923" r="12.923" fill="#fcc117" transform="translate(295.507 70.647)"/>
        <path id="Path_160" d="M343.782 183.488H338.3V178h-2.814v5.485H330v2.815h5.485v5.485h2.815V186.3h5.485z" class="cls-2" transform="translate(-28.46 -101.324)"/>
    </g>
</svg>
