<svg xmlns="http://www.w3.org/2000/svg" width="200" height="200" viewBox="0 0 200 200">
    <defs>
        <style>
            .cls-2,.cls-3,.cls-5{fill:none;stroke:#000}.cls-2{stroke-linecap:round}.cls-2,.cls-3{stroke-miterlimit:10}.cls-5{stroke-linejoin:round}
        </style>
    </defs>
    <g id="marketplace_coming" transform="translate(-922 -558)">
        <g id="Group_103" transform="translate(892 528)">
            <g id="Layer_2">
                <circle id="Ellipse_73" cx="100" cy="100" r="100" fill="none" transform="translate(30 30)"/>
            </g>
            <g id="Layer_4">
                <path id="Path_308" d="M181 108.153V153.1H79v-45.13" class="cls-2"/>
                <path id="Path_309" d="M79 96.889v-7.678a4.091 4.091 0 0 1 4.091-4.091h93.818A4.091 4.091 0 0 1 181 89.211v7.706" class="cls-2"/>
                <path id="Rectangle_373" d="M0 0h102v7.167a4 4 0 0 1-4 4H4a4 4 0 0 1-4-4V0z" class="cls-3" transform="translate(79 152.926)"/>
                <path id="Path_310" fill="none" stroke="#000" stroke-linecap="round" stroke-linejoin="round" d="M178 108.111v41.767H82v-41.767"/>
                <g id="Group_102">
                    <path id="Path_311" d="M120.1 108.111a4.436 4.436 0 0 1-4.543-4.814l1.315-15.586h8.751l-.438 15.586a5.075 5.075 0 0 1-5.085 4.814z" class="cls-5"/>
                    <path id="Path_312" d="M110.2 108.111a4.159 4.159 0 0 1-4.272-4.814l2.192-15.586h8.751l-1.313 15.589a5.44 5.44 0 0 1-5.358 4.811z" class="cls-5"/>
                    <path id="Path_313" d="M100.3 108.111a3.91 3.91 0 0 1-4-4.814l3.07-15.586h8.751L105.93 103.3a5.837 5.837 0 0 1-5.63 4.811z" class="cls-5"/>
                    <path id="Path_314" d="M90.4 108.111a3.685 3.685 0 0 1-3.731-4.814l3.946-15.586h8.752L96.3 103.3a6.266 6.266 0 0 1-5.9 4.811z" class="cls-5"/>
                    <path id="Path_315" d="M80.5 108.111a3.483 3.483 0 0 1-3.46-4.814l4.823-15.586h8.751L86.673 103.3a6.73 6.73 0 0 1-6.173 4.811z" class="cls-5"/>
                    <path id="Path_316" d="M130 108.111a4.741 4.741 0 0 1-4.814-4.814l.438-15.586h8.752l.438 15.586a4.741 4.741 0 0 1-4.814 4.814z" class="cls-5"/>
                    <path id="Path_317" d="M139.9 108.111a5.075 5.075 0 0 1-5.085-4.814l-.438-15.586h8.751l1.315 15.586a4.436 4.436 0 0 1-4.543 4.814z" class="cls-5"/>
                    <path id="Path_318" d="M149.8 108.111a5.44 5.44 0 0 1-5.356-4.814l-1.315-15.586h8.751l2.19 15.589a4.159 4.159 0 0 1-4.27 4.811z" class="cls-5"/>
                    <path id="Path_319" d="M159.7 108.111a5.837 5.837 0 0 1-5.627-4.814l-2.192-15.586h8.751L163.7 103.3a3.91 3.91 0 0 1-4 4.811z" class="cls-5"/>
                    <path id="Path_320" d="M169.6 108.111a6.266 6.266 0 0 1-5.9-4.814l-3.07-15.586h8.752l3.946 15.586a3.685 3.685 0 0 1-3.728 4.814z" class="cls-5"/>
                    <path id="Path_321" d="M179.495 108.111a6.73 6.73 0 0 1-6.168-4.814l-3.946-15.586h8.751l4.823 15.586a3.483 3.483 0 0 1-3.46 4.814z" class="cls-5"/>
                </g>
                <circle id="Ellipse_74" cx="2.194" cy="2.194" r="2.194" class="cls-3" transform="translate(127.806 156.315)"/>
                <path id="Path_322" d="M152.185 173.028h-4.375l-3.007-8.935H115.2l-3.007 8.935h-4.375a.926.926 0 1 0 0 1.852h44.37a.926.926 0 0 0 0-1.852z" class="cls-3"/>
                <path id="Line_5" fill="#fef3d1" stroke="#000" stroke-miterlimit="10" d="M0 0L44.37 0" transform="translate(107.815 173.028)"/>
            </g>
        </g>
    </g>
</svg>
