<svg xmlns="http://www.w3.org/2000/svg" id="wallet" width="112" height="112" viewBox="0 0 112 112">
    <defs>
        <style>
            .cls-1{fill:#19284d}
        </style>
    </defs>
    <g id="Group_73">
        <path id="Path_154" d="M171.02 109.222H140.2a4.308 4.308 0 0 0-4.308 4.308v16.985a4.308 4.308 0 0 0 4.308 4.308h30.82a4.308 4.308 0 0 0 4.308-4.308V113.53a4.308 4.308 0 0 0-4.308-4.308zm-25.272 18.951a6.15 6.15 0 1 1 6.151-6.15 6.157 6.157 0 0 1-6.151 6.15z" class="cls-1" transform="translate(-77.352 -62.173)"/>
        <path id="Path_155" d="M153.891 137.681a4.422 4.422 0 0 1-3.572-7.036 4.424 4.424 0 1 0 6.18 6.18 4.4 4.4 0 0 1-2.608.856z" class="cls-1" transform="translate(-84.531 -74.367)"/>
        <path id="Path_156" d="M83.274 71.345H114.1a6.88 6.88 0 0 1 1.564.186V55.836a1.374 1.374 0 0 0-1.374-1.372H44.377a1.34 1.34 0 0 1-1.338-1.412 1.391 1.391 0 0 1 1.414-1.268h64.571a8.613 8.613 0 0 0-7.6-4.564H44.5a8.615 8.615 0 0 0-8.615 8.615v54.612a8.615 8.615 0 0 0 8.615 8.615h62.541a8.615 8.615 0 0 0 8.615-8.615v-8.52a6.856 6.856 0 0 1-1.564.186H83.274a6.892 6.892 0 0 1-6.892-6.892V78.237a6.892 6.892 0 0 1 6.892-6.892z" class="cls-1" transform="translate(-20.429 -26.88)"/>
        <path id="Rectangle_317" fill="none" d="M0 0H112V112H0z"/>
    </g>
    <circle id="Ellipse_63" cx="12.923" cy="12.923" r="12.923" fill="#fcc117" transform="translate(11.783 69.923)"/>
    <path id="Path_157" d="M54.906 178.686v3.432H46v2.814h8.911v3.5l4.874-4.874z" class="cls-1" transform="translate(-28.182 -100.714)"/>
</svg>
